ffmpeg started on 2025-06-09 at 18:00:34
Report written to "D:\Convert\FFMetrics\reports\psnr_report-6.txt"
Log level: 32
Command line:
ffmpeg -hide_banner -nostdin -i "G:\\\xc0\xed\xe8\xec\xe5\\\xce\xed\xe3\xee\xe8\xed\xe3\xe8\\!_30_\xc2\xe5\xf1\xed\xe0_2023\\\xd1\xeb\xe8\xf8\xea\xee\xec \xec\xe8\xeb\xfb\xe9 \xea\xf0\xe8\xe7\xe8\xf1\\Kawaisugi_Crisis_[05]_[AniLibria_TV]_[WEBRip_1080p]_HEVC.mkv" -i "G:\\\xc0\xed\xe8\xec\xe5\\\xce\xed\xe3\xee\xe8\xed\xe3\xe8\\!_30_\xc2\xe5\xf1\xed\xe0_2023\\\xd1\xeb\xe8\xf8\xea\xee\xec \xec\xe8\xeb\xfb\xe9 \xea\xf0\xe8\xe7\xe8\xf1\\Kawaisugi_Crisis_[05]_[AniLibria_TV]_[WEBRip_1080p].mkv" -lavfi "[0:v]settb=AVTB,setpts=PTS-STARTPTS,format=pix_fmts=yuv420p10,fps=24000/1001,scale=1920:1080:flags=bicubic[main];[1:v]settb=AVTB,setpts=PTS-STARTPTS,format=pix_fmts=yuv420p,fps=24000/1001,scale=1920:1080:flags=bicubic[ref];[main][ref]psnr=eof_action=endall:stats_file='D\\:/Convert/FFMetrics/logs/psnr_logfile-6.txt'" -f null -
Input #0, matroska,webm, from 'G:\Аниме\Онгоинги\!_30_Весна_2023\Слишком милый кризис\Kawaisugi_Crisis_[05]_[AniLibria_TV]_[WEBRip_1080p]_HEVC.mkv':
  Metadata:
    ENCODER         : Lavf61.7.100
  Duration: 00:23:42.51, start: -0.021000, bitrate: 1123 kb/s
  Stream #0:0(jpn): Video: hevc (Main 10), yuv420p10le(pc, bt709, progressive), 1920x1080 [SAR 1:1 DAR 16:9], 23.98 fps, 23.98 tbr, 1k tbn (default) (forced)
      Metadata:
        title           : Original
        ENCODER         : Lavc61.19.100 libx265
        BPS             : 926244
        DURATION        : 00:23:42.504708333
        NUMBER_OF_FRAMES: 34106
        NUMBER_OF_BYTES : 164698400
        _STATISTICS_WRITING_APP: mkvpropedit v66.0.0 ('Josie') 64-bit
        _STATISTICS_WRITING_DATE_UTC: 2025-06-09 13:20:06
        _STATISTICS_TAGS: BPS DURATION NUMBER_OF_FRAMES NUMBER_OF_BYTES
  Stream #0:1(rus): Audio: aac (LC), 48000 Hz, stereo, fltp (default) (forced)
      Metadata:
        title           : AniLibria.TV
        ENCODER         : Lavc61.19.100 aac
        BPS             : 193250
        DURATION        : 00:23:42.399000000
        NUMBER_OF_FRAMES: 66676
        NUMBER_OF_BYTES : 34359982
        _STATISTICS_WRITING_APP: mkvpropedit v66.0.0 ('Josie') 64-bit
        _STATISTICS_WRITING_DATE_UTC: 2025-06-09 13:20:06
        _STATISTICS_TAGS: BPS DURATION NUMBER_OF_FRAMES NUMBER_OF_BYTES
  Stream #0:2(rus): Subtitle: ass (ssa) (default) (forced)
      Metadata:
        title           : Надписи
        BPS             : 0
        DURATION        : 00:00:00.000000000
        NUMBER_OF_FRAMES: 0
        NUMBER_OF_BYTES : 0
        _STATISTICS_WRITING_APP: mkvpropedit v66.0.0 ('Josie') 64-bit
        _STATISTICS_WRITING_DATE_UTC: 2025-06-09 13:20:06
        _STATISTICS_TAGS: BPS DURATION NUMBER_OF_FRAMES NUMBER_OF_BYTES
  Stream #0:3(rus): Subtitle: ass (ssa)
      Metadata:
        title           : Субтитры
        BPS             : 159
        DURATION        : 00:23:38.830000000
        NUMBER_OF_FRAMES: 322
        NUMBER_OF_BYTES : 28201
        _STATISTICS_WRITING_APP: mkvpropedit v66.0.0 ('Josie') 64-bit
        _STATISTICS_WRITING_DATE_UTC: 2025-06-09 13:20:06
        _STATISTICS_TAGS: BPS DURATION NUMBER_OF_FRAMES NUMBER_OF_BYTES
Input #1, matroska,webm, from 'G:\Аниме\Онгоинги\!_30_Весна_2023\Слишком милый кризис\Kawaisugi_Crisis_[05]_[AniLibria_TV]_[WEBRip_1080p].mkv':
  Metadata:
    encoder         : libebml v1.4.2 + libmatroska v1.6.4
    creation_time   : 2025-01-14T16:53:51.000000Z
  Duration: 00:23:42.51, start: 0.000000, bitrate: 2002 kb/s
  Stream #1:0(jpn): Video: h264 (High), yuvj420p(pc, bt709, progressive), 1920x1080 [SAR 1:1 DAR 16:9], 23.98 fps, 23.98 tbr, 1k tbn (default) (forced)
      Metadata:
        title           : Original
        BPS             : 1801659
        DURATION        : 00:23:42.505000000
        NUMBER_OF_FRAMES: 34106
        NUMBER_OF_BYTES : 320358705
        _STATISTICS_WRITING_APP: mkvmerge v66.0.0 ('Josie') 64-bit
        _STATISTICS_WRITING_DATE_UTC: 2025-01-14 16:53:51
        _STATISTICS_TAGS: BPS DURATION NUMBER_OF_FRAMES NUMBER_OF_BYTES
  Stream #1:1(rus): Audio: aac (LC), 48000 Hz, stereo, fltp (default) (forced)
      Metadata:
        title           : AniLibria.TV
        BPS             : 192088
        DURATION        : 00:23:42.399000000
        NUMBER_OF_FRAMES: 66675
        NUMBER_OF_BYTES : 34153247
        _STATISTICS_WRITING_APP: mkvmerge v66.0.0 ('Josie') 64-bit
        _STATISTICS_WRITING_DATE_UTC: 2025-01-14 16:53:51
        _STATISTICS_TAGS: BPS DURATION NUMBER_OF_FRAMES NUMBER_OF_BYTES
  Stream #1:2(rus): Subtitle: ass (ssa) (default) (forced)
      Metadata:
        title           : Надписи
        BPS             : 0
        DURATION        : 00:00:00.000000000
        NUMBER_OF_FRAMES: 0
        NUMBER_OF_BYTES : 0
        _STATISTICS_WRITING_APP: mkvmerge v66.0.0 ('Josie') 64-bit
        _STATISTICS_WRITING_DATE_UTC: 2025-01-14 16:53:51
        _STATISTICS_TAGS: BPS DURATION NUMBER_OF_FRAMES NUMBER_OF_BYTES
  Stream #1:3(rus): Subtitle: ass (ssa)
      Metadata:
        title           : Субтитры
        BPS             : 159
        DURATION        : 00:23:38.830000000
        NUMBER_OF_FRAMES: 322
        NUMBER_OF_BYTES : 28201
        _STATISTICS_WRITING_APP: mkvmerge v66.0.0 ('Josie') 64-bit
        _STATISTICS_WRITING_DATE_UTC: 2025-01-14 16:53:51
        _STATISTICS_TAGS: BPS DURATION NUMBER_OF_FRAMES NUMBER_OF_BYTES
  Stream #1:4: Attachment: ttf
      Metadata:
        filename        : tt0142m.ttf
        mimetype        : application/x-truetype-font
  Stream #1:5: Attachment: ttf
      Metadata:
        filename        : ARIAL.TTF
        mimetype        : application/x-truetype-font
Stream mapping:
  Stream #0:0 (hevc) -> settb:default
  Stream #1:0 (h264) -> settb:default
  psnr:default -> Stream #0:0 (wrapped_avframe)
  Stream #0:1 -> #0:1 (aac (native) -> pcm_s16le (native))
[swscaler @ 00000285d53a8640] deprecated pixel format used, make sure you did set range correctly
Output #0, null, to 'pipe:':
  Metadata:
    encoder         : Lavf61.7.100
  Stream #0:0: Video: wrapped_avframe, yuv420p10le(pc, bt709, progressive), 1920x1080 [SAR 1:1 DAR 16:9], q=2-31, 200 kb/s, 23.98 fps, 23.98 tbn
      Metadata:
        encoder         : Lavc61.19.100 wrapped_avframe
  Stream #0:1(rus): Audio: pcm_s16le, 48000 Hz, stereo, s16, 1536 kb/s (default) (forced)
      Metadata:
        title           : AniLibria.TV
        _STATISTICS_TAGS: BPS DURATION NUMBER_OF_FRAMES NUMBER_OF_BYTES
        BPS             : 193250
        DURATION        : 00:23:42.399000000
        NUMBER_OF_FRAMES: 66676
        NUMBER_OF_BYTES : 34359982
        _STATISTICS_WRITING_APP: mkvpropedit v66.0.0 ('Josie') 64-bit
        _STATISTICS_WRITING_DATE_UTC: 2025-06-09 13:20:06
        encoder         : Lavc61.19.100 pcm_s16le
frame=  156 fps=0.0 q=-0.0 size=N/A time=00:00:06.50 bitrate=N/A speed=12.5x    frame=  330 fps=318 q=-0.0 size=N/A time=00:00:13.76 bitrate=N/A speed=13.3x    frame=  526 fps=340 q=-0.0 size=N/A time=00:00:21.93 bitrate=N/A speed=14.2x    frame=  775 fps=374 q=-0.0 size=N/A time=00:00:32.32 bitrate=N/A speed=15.6x    frame= 1019 fps=395 q=-0.0 size=N/A time=00:00:42.50 bitrate=N/A speed=16.5x    frame= 1210 fps=390 q=-0.0 size=N/A time=00:00:50.46 bitrate=N/A speed=16.3x    frame= 1441 fps=399 q=-0.0 size=N/A time=00:01:00.10 bitrate=N/A speed=16.6x    frame= 1681 fps=408 q=-0.0 size=N/A time=00:01:10.11 bitrate=N/A speed=  17x    frame= 1916 fps=412 q=-0.0 size=N/A time=00:01:19.91 bitrate=N/A speed=17.2x    frame= 2180 fps=421 q=-0.0 size=N/A time=00:01:30.92 bitrate=N/A speed=17.6x    frame= 2417 fps=425 q=-0.0 size=N/A time=00:01:40.80 bitrate=N/A speed=17.7x    frame= 2678 fps=431 q=-0.0 size=N/A time=00:01:51.69 bitrate=N/A speed=  18x    frame= 2860 fps=426 q=-0.0 size=N/A time=00:01:59.28 bitrate=N/A speed=17.8x    frame= 3103 fps=429 q=-0.0 size=N/A time=00:02:09.42 bitrate=N/A speed=17.9x    frame= 3292 fps=425 q=-0.0 size=N/A time=00:02:17.30 bitrate=N/A speed=17.7x    frame= 3528 fps=427 q=-0.0 size=N/A time=00:02:27.14 bitrate=N/A speed=17.8x    frame= 3777 fps=430 q=-0.0 size=N/A time=00:02:37.53 bitrate=N/A speed=  18x    frame= 4000 fps=430 q=-0.0 size=N/A time=00:02:46.83 bitrate=N/A speed=17.9x    frame= 4241 fps=432 q=-0.0 size=N/A time=00:02:56.88 bitrate=N/A speed=  18x    frame= 4474 fps=433 q=-0.0 size=N/A time=00:03:06.60 bitrate=N/A speed=18.1x    frame= 4690 fps=432 q=-0.0 size=N/A time=00:03:15.61 bitrate=N/A speed=  18x    frame= 4920 fps=433 q=-0.0 size=N/A time=00:03:25.20 bitrate=N/A speed=18.1x    frame= 5154 fps=434 q=-0.0 size=N/A time=00:03:34.96 bitrate=N/A speed=18.1x    frame= 5395 fps=435 q=-0.0 size=N/A time=00:03:45.01 bitrate=N/A speed=18.2x    frame= 5642 fps=437 q=-0.0 size=N/A time=00:03:55.31 bitrate=N/A speed=18.2x    frame= 5828 fps=434 q=-0.0 size=N/A time=00:04:03.07 bitrate=N/A speed=18.1x    frame= 5986 fps=429 q=-0.0 size=N/A time=00:04:09.66 bitrate=N/A speed=17.9x    frame= 6228 fps=431 q=-0.0 size=N/A time=00:04:19.75 bitrate=N/A speed=  18x    frame= 6419 fps=429 q=-0.0 size=N/A time=00:04:27.72 bitrate=N/A speed=17.9x    frame= 6688 fps=431 q=-0.0 size=N/A time=00:04:38.94 bitrate=N/A speed=  18x    frame= 6933 fps=433 q=-0.0 size=N/A time=00:04:49.16 bitrate=N/A speed=18.1x    frame= 7147 fps=432 q=-0.0 size=N/A time=00:04:58.08 bitrate=N/A speed=  18x    frame= 7356 fps=431 q=-0.0 size=N/A time=00:05:06.80 bitrate=N/A speed=  18x    frame= 7575 fps=431 q=-0.0 size=N/A time=00:05:15.94 bitrate=N/A speed=  18x    frame= 7757 fps=429 q=-0.0 size=N/A time=00:05:23.53 bitrate=N/A speed=17.9x    frame= 7946 fps=427 q=-0.0 size=N/A time=00:05:31.41 bitrate=N/A speed=17.8x    frame= 8179 fps=428 q=-0.0 size=N/A time=00:05:41.13 bitrate=N/A speed=17.8x    frame= 8437 fps=429 q=-0.0 size=N/A time=00:05:51.89 bitrate=N/A speed=17.9x    frame= 8689 fps=431 q=-0.0 size=N/A time=00:06:02.40 bitrate=N/A speed=  18x    frame= 8934 fps=432 q=-0.0 size=N/A time=00:06:12.62 bitrate=N/A speed=  18x    frame= 9203 fps=434 q=-0.0 size=N/A time=00:06:23.84 bitrate=N/A speed=18.1x    frame= 9455 fps=435 q=-0.0 size=N/A time=00:06:34.35 bitrate=N/A speed=18.2x    frame= 9709 fps=437 q=-0.0 size=N/A time=00:06:44.94 bitrate=N/A speed=18.2x    frame= 9931 fps=437 q=-0.0 size=N/A time=00:06:54.20 bitrate=N/A speed=18.2x    frame=10158 fps=437 q=-0.0 size=N/A time=00:07:03.67 bitrate=N/A speed=18.2x    frame=10364 fps=436 q=-0.0 size=N/A time=00:07:12.26 bitrate=N/A speed=18.2x    frame=10622 fps=437 q=-0.0 size=N/A time=00:07:23.02 bitrate=N/A speed=18.2x    frame=10867 fps=438 q=-0.0 size=N/A time=00:07:33.24 bitrate=N/A speed=18.3x    frame=11095 fps=438 q=-0.0 size=N/A time=00:07:42.75 bitrate=N/A speed=18.3x    frame=11337 fps=439 q=-0.0 size=N/A time=00:07:52.84 bitrate=N/A speed=18.3x    frame=11565 fps=439 q=-0.0 size=N/A time=00:08:02.35 bitrate=N/A speed=18.3x    frame=11811 fps=439 q=-0.0 size=N/A time=00:08:12.61 bitrate=N/A speed=18.3x    frame=12058 fps=440 q=-0.0 size=N/A time=00:08:22.91 bitrate=N/A speed=18.4x    frame=12307 fps=441 q=-0.0 size=N/A time=00:08:33.30 bitrate=N/A speed=18.4x    frame=12566 fps=442 q=-0.0 size=N/A time=00:08:44.10 bitrate=N/A speed=18.4x    frame=12828 fps=443 q=-0.0 size=N/A time=00:08:55.03 bitrate=N/A speed=18.5x    frame=13067 fps=444 q=-0.0 size=N/A time=00:09:05.00 bitrate=N/A speed=18.5x    frame=13320 fps=444 q=-0.0 size=N/A time=00:09:15.55 bitrate=N/A speed=18.5x    frame=13579 fps=445 q=-0.0 size=N/A time=00:09:26.35 bitrate=N/A speed=18.6x    frame=13832 fps=446 q=-0.0 size=N/A time=00:09:36.90 bitrate=N/A speed=18.6x    frame=14081 fps=447 q=-0.0 size=N/A time=00:09:47.29 bitrate=N/A speed=18.6x    frame=14340 fps=448 q=-0.0 size=N/A time=00:09:58.09 bitrate=N/A speed=18.7x    frame=14586 fps=448 q=-0.0 size=N/A time=00:10:08.35 bitrate=N/A speed=18.7x    frame=14783 fps=447 q=-0.0 size=N/A time=00:10:16.57 bitrate=N/A speed=18.6x    frame=15025 fps=448 q=-0.0 size=N/A time=00:10:26.66 bitrate=N/A speed=18.7x    frame=15292 fps=448 q=-0.0 size=N/A time=00:10:37.80 bitrate=N/A speed=18.7x    frame=15503 fps=448 q=-0.0 size=N/A time=00:10:46.60 bitrate=N/A speed=18.7x    frame=15694 fps=447 q=-0.0 size=N/A time=00:10:54.57 bitrate=N/A speed=18.6x    frame=15928 fps=447 q=-0.0 size=N/A time=00:11:04.33 bitrate=N/A speed=18.6x    frame=16184 fps=448 q=-0.0 size=N/A time=00:11:15.00 bitrate=N/A speed=18.7x    frame=16443 fps=448 q=-0.0 size=N/A time=00:11:25.81 bitrate=N/A speed=18.7x    frame=16688 fps=449 q=-0.0 size=N/A time=00:11:36.02 bitrate=N/A speed=18.7x    frame=16929 fps=449 q=-0.0 size=N/A time=00:11:46.08 bitrate=N/A speed=18.7x    frame=17181 fps=449 q=-0.0 size=N/A time=00:11:56.59 bitrate=N/A speed=18.7x    frame=17386 fps=449 q=-0.0 size=N/A time=00:12:05.14 bitrate=N/A speed=18.7x    frame=17598 fps=448 q=-0.0 size=N/A time=00:12:13.98 bitrate=N/A speed=18.7x    frame=17826 fps=448 q=-0.0 size=N/A time=00:12:23.49 bitrate=N/A speed=18.7x    frame=18041 fps=448 q=-0.0 size=N/A time=00:12:32.46 bitrate=N/A speed=18.7x    frame=18254 fps=447 q=-0.0 size=N/A time=00:12:41.34 bitrate=N/A speed=18.7x    frame=18464 fps=447 q=-0.0 size=N/A time=00:12:50.10 bitrate=N/A speed=18.6x    frame=18706 fps=447 q=-0.0 size=N/A time=00:13:00.19 bitrate=N/A speed=18.7x    frame=18952 fps=448 q=-0.0 size=N/A time=00:13:10.45 bitrate=N/A speed=18.7x    frame=19208 fps=448 q=-0.0 size=N/A time=00:13:21.13 bitrate=N/A speed=18.7x    frame=19465 fps=449 q=-0.0 size=N/A time=00:13:31.85 bitrate=N/A speed=18.7x    frame=19723 fps=449 q=-0.0 size=N/A time=00:13:42.61 bitrate=N/A speed=18.7x    frame=19957 fps=449 q=-0.0 size=N/A time=00:13:52.37 bitrate=N/A speed=18.7x    frame=20193 fps=449 q=-0.0 size=N/A time=00:14:02.21 bitrate=N/A speed=18.7x    frame=20451 fps=450 q=-0.0 size=N/A time=00:14:12.97 bitrate=N/A speed=18.8x    frame=20705 fps=451 q=-0.0 size=N/A time=00:14:23.57 bitrate=N/A speed=18.8x    frame=20953 fps=451 q=-0.0 size=N/A time=00:14:33.91 bitrate=N/A speed=18.8x    frame=21184 fps=451 q=-0.0 size=N/A time=00:14:43.54 bitrate=N/A speed=18.8x    frame=21441 fps=451 q=-0.0 size=N/A time=00:14:54.26 bitrate=N/A speed=18.8x    frame=21626 fps=450 q=-0.0 size=N/A time=00:15:01.98 bitrate=N/A speed=18.8x    frame=21862 fps=451 q=-0.0 size=N/A time=00:15:11.82 bitrate=N/A speed=18.8x    frame=22120 fps=451 q=-0.0 size=N/A time=00:15:22.58 bitrate=N/A speed=18.8x    frame=22363 fps=451 q=-0.0 size=N/A time=00:15:32.72 bitrate=N/A speed=18.8x    frame=22625 fps=452 q=-0.0 size=N/A time=00:15:43.65 bitrate=N/A speed=18.8x    frame=22867 fps=452 q=-0.0 size=N/A time=00:15:53.74 bitrate=N/A speed=18.9x    frame=23103 fps=452 q=-0.0 size=N/A time=00:16:03.58 bitrate=N/A speed=18.9x    frame=23315 fps=452 q=-0.0 size=N/A time=00:16:12.42 bitrate=N/A speed=18.8x    frame=23523 fps=451 q=-0.0 size=N/A time=00:16:21.10 bitrate=N/A speed=18.8x    frame=23777 fps=452 q=-0.0 size=N/A time=00:16:31.69 bitrate=N/A speed=18.8x    frame=24020 fps=452 q=-0.0 size=N/A time=00:16:41.83 bitrate=N/A speed=18.8x    frame=24267 fps=452 q=-0.0 size=N/A time=00:16:52.13 bitrate=N/A speed=18.9x    frame=24496 fps=452 q=-0.0 size=N/A time=00:17:01.68 bitrate=N/A speed=18.9x    frame=24730 fps=452 q=-0.0 size=N/A time=00:17:11.44 bitrate=N/A speed=18.8x    frame=24990 fps=452 q=-0.0 size=N/A time=00:17:22.29 bitrate=N/A speed=18.9x    frame=25245 fps=453 q=-0.0 size=N/A time=00:17:32.92 bitrate=N/A speed=18.9x    frame=25497 fps=453 q=-0.0 size=N/A time=00:17:43.43 bitrate=N/A speed=18.9x    frame=25750 fps=454 q=-0.0 size=N/A time=00:17:53.98 bitrate=N/A speed=18.9x    frame=25978 fps=453 q=-0.0 size=N/A time=00:18:03.49 bitrate=N/A speed=18.9x    frame=26197 fps=453 q=-0.0 size=N/A time=00:18:12.63 bitrate=N/A speed=18.9x    frame=26449 fps=453 q=-0.0 size=N/A time=00:18:23.14 bitrate=N/A speed=18.9x    frame=26688 fps=454 q=-0.0 size=N/A time=00:18:33.11 bitrate=N/A speed=18.9x    frame=26931 fps=454 q=-0.0 size=N/A time=00:18:43.28 bitrate=N/A speed=18.9x    frame=27172 fps=454 q=-0.0 size=N/A time=00:18:53.29 bitrate=N/A speed=18.9x    frame=27386 fps=454 q=-0.0 size=N/A time=00:19:02.22 bitrate=N/A speed=18.9x    frame=27602 fps=453 q=-0.0 size=N/A time=00:19:11.23 bitrate=N/A speed=18.9x    frame=27847 fps=453 q=-0.0 size=N/A time=00:19:21.45 bitrate=N/A speed=18.9x    frame=28103 fps=454 q=-0.0 size=N/A time=00:19:32.12 bitrate=N/A speed=18.9x    frame=28298 fps=453 q=-0.0 size=N/A time=00:19:40.26 bitrate=N/A speed=18.9x    frame=28530 fps=453 q=-0.0 size=N/A time=00:19:49.93 bitrate=N/A speed=18.9x    frame=28753 fps=453 q=-0.0 size=N/A time=00:19:59.23 bitrate=N/A speed=18.9x    frame=29006 fps=453 q=-0.0 size=N/A time=00:20:09.79 bitrate=N/A speed=18.9x    frame=29231 fps=453 q=-0.0 size=N/A time=00:20:19.17 bitrate=N/A speed=18.9x    frame=29458 fps=453 q=-0.0 size=N/A time=00:20:28.64 bitrate=N/A speed=18.9x    frame=29712 fps=453 q=-0.0 size=N/A time=00:20:39.23 bitrate=N/A speed=18.9x    frame=29966 fps=454 q=-0.0 size=N/A time=00:20:49.83 bitrate=N/A speed=18.9x    frame=30204 fps=454 q=-0.0 size=N/A time=00:20:59.75 bitrate=N/A speed=18.9x    frame=30448 fps=454 q=-0.0 size=N/A time=00:21:09.93 bitrate=N/A speed=18.9x    frame=30693 fps=454 q=-0.0 size=N/A time=00:21:20.15 bitrate=N/A speed=18.9x    frame=30936 fps=454 q=-0.0 size=N/A time=00:21:30.28 bitrate=N/A speed=18.9x    frame=31177 fps=454 q=-0.0 size=N/A time=00:21:40.34 bitrate=N/A speed=18.9x    frame=31374 fps=454 q=-0.0 size=N/A time=00:21:48.55 bitrate=N/A speed=18.9x    frame=31601 fps=454 q=-0.0 size=N/A time=00:21:58.02 bitrate=N/A speed=18.9x    frame=31791 fps=453 q=-0.0 size=N/A time=00:22:05.94 bitrate=N/A speed=18.9x    frame=31994 fps=453 q=-0.0 size=N/A time=00:22:14.41 bitrate=N/A speed=18.9x    frame=32156 fps=452 q=-0.0 size=N/A time=00:22:21.17 bitrate=N/A speed=18.8x    frame=32325 fps=451 q=-0.0 size=N/A time=00:22:28.22 bitrate=N/A speed=18.8x    frame=32488 fps=450 q=-0.0 size=N/A time=00:22:35.02 bitrate=N/A speed=18.8x    frame=32641 fps=449 q=-0.0 size=N/A time=00:22:41.40 bitrate=N/A speed=18.7x    frame=32794 fps=448 q=-0.0 size=N/A time=00:22:47.78 bitrate=N/A speed=18.7x    frame=32955 fps=447 q=-0.0 size=N/A time=00:22:54.49 bitrate=N/A speed=18.6x    frame=33120 fps=446 q=-0.0 size=N/A time=00:23:01.38 bitrate=N/A speed=18.6x    frame=33313 fps=445 q=-0.0 size=N/A time=00:23:09.42 bitrate=N/A speed=18.6x    frame=33528 fps=445 q=-0.0 size=N/A time=00:23:18.39 bitrate=N/A speed=18.6x    frame=33774 fps=445 q=-0.0 size=N/A time=00:23:28.65 bitrate=N/A speed=18.6x    frame=33984 fps=445 q=-0.0 size=N/A time=00:23:37.41 bitrate=N/A speed=18.6x    [Parsed_psnr_10 @ 00000285c0d6c100] PSNR y:48.026705 u:51.515689 v:51.283471 average:48.888361 min:42.787022 max:inf
[out#0/null @ 00000285be7cef00] video:14654KiB audio:266704KiB subtitle:0KiB other streams:0KiB global headers:0KiB muxing overhead: unknown
frame=34105 fps=445 q=-0.0 Lsize=N/A time=00:23:42.42 bitrate=N/A speed=18.6x    
